<svg width="32" height="33" viewBox="0 0 32 33" fill="none" xmlns="http://www.w3.org/2000/svg">
<g clip-path="url(#clip0_608_512)">
<path fill-rule="evenodd" clip-rule="evenodd" d="M26.8414 27.8372C26.5845 28.0778 26.4592 28.4301 26.5229 28.7762L26.9074 30.8654C27.0705 31.752 26.2128 32.4827 25.3634 32.1807L22.68 31.2267C22.3322 31.1031 21.9433 30.9788 21.5981 31.1097C19.8412 31.776 17.9359 32.1407 15.9454 32.1407C9.31657 32.1407 3.63251 28.0958 1.22679 22.3395C2.21652 22.0997 3.03073 21.5091 3.72983 20.6972C3.78508 20.6331 3.84735 20.5754 3.90963 20.5178C3.94403 20.4859 3.97844 20.4541 4.01165 20.4212C4.34233 20.094 4.6612 19.7216 4.96078 19.3121L4.96117 19.3117L4.98283 19.2826C5.57097 18.7688 6.08746 18.2007 6.58545 17.6484L6.58552 17.6483C7.94286 16.1433 9.11519 14.8433 11.4988 14.8433C14.7123 14.8433 16.4072 18.2328 17.8963 21.2106C18.0409 21.4998 18.1836 21.7851 18.3255 22.0631C19.5058 24.3745 21.0887 26.621 22.7825 26.621C26.268 26.621 27.8285 22.7487 29.3374 19.0039L29.3376 19.0035C30.0743 17.1752 30.8256 15.3108 31.7507 14.0727C31.8431 14.7671 31.8907 15.4756 31.8907 16.1953C31.8907 20.7882 29.9489 24.9276 26.8414 27.8372ZM31.2511 11.7096C29.3134 5.08708 23.1943 0.25 15.9454 0.25C7.13898 0.25 0 7.38897 0 16.1953C0 17.6718 0.200668 19.1014 0.576218 20.4583C2.5189 20.1159 3.74923 17.0634 4.9411 14.1056L4.94141 14.1048C6.45063 10.3602 8.01115 6.48841 11.4968 6.48841C13.6898 6.48841 15.0905 8.30379 16.2095 10.8779C16.2834 11.048 16.3578 11.2203 16.4328 11.3942C17.8029 14.5699 19.3976 18.2661 22.7845 18.2661C25.1665 18.2661 26.3401 16.9642 27.6986 15.4563C28.1904 14.911 28.7001 14.3495 29.2788 13.8406C29.2895 13.8312 29.2992 13.8207 29.3077 13.8092L29.3164 13.7975L29.3168 13.7971L29.3171 13.7967C29.6167 13.3873 29.9355 13.015 30.2661 12.6879C30.3133 12.641 30.3653 12.6001 30.4212 12.5635C30.6808 12.2459 30.9563 11.9589 31.2511 11.7096Z" fill="url(#paint0_linear_608_512)"/>
</g>
<defs>
<linearGradient id="paint0_linear_608_512" x1="15.9454" y1="32.25" x2="15.9454" y2="0.25" gradientUnits="userSpaceOnUse">
<stop stop-color="#FF5F00"/>
<stop offset="0.500187" stop-color="#FF5F00"/>
<stop offset="1" stop-color="#F79E1B"/>
</linearGradient>
<clipPath id="clip0_608_512">
<rect width="31.8907" height="32" fill="white" transform="translate(0 0.25)"/>
</clipPath>
</defs>
</svg>